<?xml version="1.0" encoding="UTF-8"?>
<svg id="Layer_1" xmlns="http://www.w3.org/2000/svg" xmlns:xlink="http://www.w3.org/1999/xlink" version="1.1" viewBox="0 0 100 100">
  <!-- Generator: Adobe Illustrator 30.1.0, SVG Export Plug-In . SVG Version: 2.1.1 Build 136)  -->
  <defs>
    <style>
      .st0 {
        fill: url(#linear-gradient);
      }

      .st1 {
        fill: #fff;
      }
    </style>
    <linearGradient id="linear-gradient" x1="-20.79" y1="-20.79" x2="120.79" y2="120.79" gradientUnits="userSpaceOnUse">
      <stop offset="0" stop-color="#ff6a00"/>
      <stop offset="1" stop-color="#ee0979"/>
    </linearGradient>
  </defs>
  <rect class="st0" x="-.06" y="-.06" width="100.11" height="100.11"/>
  <path class="st1" d="M39.21,62.15c-.52-.57-1.41-.61-1.98-.09-.54.49-.61,1.31-.16,1.89.94,1.13,2.88,4.01.66,6.76-1.06,1.25-2.56,2.03-4.19,2.19-3.41.37-7.8,1.26-10.38,3.38-.93-4.32.43-7.89,4.14-10.85.6-.48.7-1.37.21-1.97-.15-.19-.35-.33-.57-.42-1.15-.42-2.37-.61-3.59-.56.87-1.65,2.35-3.66,4.39-4.22,1.53-.41,3.27.1,5.19,1.5.66.4,1.53.18,1.92-.48.34-.58.23-1.32-.27-1.77-2.63-1.93-5.17-2.58-7.54-1.95-3.64.96-5.8,4.68-6.76,6.82-.49,1.08,0,2.35,1.07,2.84.41.18.85.24,1.29.15.25-.05.5-.08.75-.09-2.5,2.85-4.34,7.04-2.64,12.84.26.92,1.1,1.55,2.06,1.55h.07c.6-.02,1.16-.29,1.55-.74,1.36-1.55,4.8-2.73,9.43-3.23,2.37-.23,4.54-1.39,6.06-3.21,1.52-1.77,2.04-4.2,1.39-6.44-.42-1.43-1.13-2.75-2.1-3.89Z"/>
  <path class="st1" d="M54.43,35.85c-3.58,0-6.47,2.9-6.47,6.47s2.9,6.47,6.47,6.47,6.47-2.9,6.47-6.47c0-1.71-.68-3.36-1.89-4.57-1.21-1.22-2.86-1.9-4.58-1.9ZM57.03,44.92c-1.44,1.44-3.76,1.44-5.19,0s-1.44-3.76,0-5.19c1.44-1.44,3.76-1.44,5.19,0,.69.69,1.08,1.62,1.08,2.6s-.39,1.91-1.08,2.6h0Z"/>
  <path class="st1" d="M70.91,24.53c-7.64-.45-15.24,1.36-21.86,5.21-2.64,1.52-5.06,3.37-7.21,5.53l-1.98-.11c-2.31-.12-4.56.75-6.2,2.38l-4.11,4.11c-.72.71-.72,1.86,0,2.58.17.17.37.3.6.4l5.33,2.21c-.56,1.52-1.01,3.08-1.37,4.65l-.25,1.13c-.1.47.04.95.38,1.29l8.57,8.61c.34.34.82.48,1.29.38l1.13-.25c1.58-.35,3.14-.8,4.67-1.35l2.2,5.31c.39.93,1.47,1.36,2.39.96.22-.1.42-.23.59-.4l4.11-4.11c1.63-1.63,2.5-3.89,2.38-6.2l-.1-1.98c2.16-2.14,4.04-4.55,5.57-7.18,3.85-6.62,5.66-14.23,5.21-21.86-.04-.72-.61-1.28-1.32-1.32h0ZM64.66,46.2c-1.48,2.62-3.34,5-5.52,7.07l-.06.05c-.24.23-.39.54-.43.87,0,.08,0,.16,0,.25l.14,2.61c.08,1.52-.49,3-1.57,4.07l-3.08,3.08-2.16-5.21c-.29-.71-1.1-1.05-1.81-.77-1.8.71-3.64,1.27-5.53,1.69l-.38.08-7.5-7.5.08-.38c.42-1.88.98-3.73,1.69-5.53.28-.71-.06-1.52-.77-1.81l-5.21-2.16,3.08-3.08c1.08-1.08,2.56-1.65,4.08-1.57l2.63.14c.43.02.85-.16,1.13-.49,2.04-2.16,4.39-4,6.97-5.46,5.77-3.36,12.35-5.05,19.03-4.89.16,6.63-1.5,13.18-4.82,18.93Z"/>
</svg>