<svg xmlns="http://www.w3.org/2000/svg" viewBox="0 0 100 100">
  <!-- Background circle -->
  <circle cx="50" cy="50" r="50" fill="#111111"/>

  <!-- Exhaust flame -->
  <path d="M44 78 L50 92 L56 78" fill="#ff4400" opacity="0.9"/>
  <path d="M46 78 L50 86 L54 78" fill="#ffaa00"/>

  <!-- Rocket body - cylindrical with rounded nose -->
  <rect x="42" y="30" width="16" height="48" rx="2" fill="#e8e8e8" stroke="#999" stroke-width="0.5"/>

  <!-- Nose cone -->
  <path d="M42 30 Q42 18 50 12 Q58 18 58 30 Z" fill="#e8e8e8" stroke="#999" stroke-width="0.5"/>

  <!-- Body stripe -->
  <rect x="42" y="55" width="16" height="6" fill="#222"/>

  <!-- Window -->
  <circle cx="50" cy="38" r="5" fill="#44aaff" stroke="#666" stroke-width="1"/>
  <circle cx="50" cy="38" r="3" fill="#66ccff" opacity="0.6"/>

  <!-- Left fin -->
  <path d="M42 65 L32 78 L42 78 Z" fill="#ff4400" stroke="#cc3300" stroke-width="0.5"/>

  <!-- Right fin -->
  <path d="M58 65 L68 78 L58 78 Z" fill="#ff4400" stroke="#cc3300" stroke-width="0.5"/>

  <!-- Grid fins (small details at top) -->
  <rect x="38" y="26" width="4" height="3" rx="0.5" fill="#999"/>
  <rect x="58" y="26" width="4" height="3" rx="0.5" fill="#999"/>
</svg>
