<?xml version="1.0" encoding="UTF-8"?>
<svg id="Layer_1" xmlns="http://www.w3.org/2000/svg" xmlns:xlink="http://www.w3.org/1999/xlink" version="1.1" viewBox="0 0 100 100">
  <!-- Generator: Adobe Illustrator 30.1.0, SVG Export Plug-In . SVG Version: 2.1.1 Build 136)  -->
  <defs>
    <style>
      .st0 {
        fill: url(#linear-gradient);
      }

      .st1 {
        fill: #fff;
        stroke: #fff;
        stroke-miterlimit: 10;
      }
    </style>
    <linearGradient id="linear-gradient" x1="-20.79" y1="-20.79" x2="120.79" y2="120.79" gradientUnits="userSpaceOnUse">
      <stop offset="0" stop-color="#ff6a00"/>
      <stop offset="1" stop-color="#ee0979"/>
    </linearGradient>
  </defs>
  <rect class="st0" x="-.06" y="-.06" width="100.11" height="100.11"/>
  <path class="st1" d="M41.56,62.32c-.62-.67-1.66-.72-2.33-.11-.63.58-.72,1.55-.19,2.23,1.11,1.33,3.4,4.72.78,7.96-1.25,1.47-3.01,2.39-4.93,2.57-4.01.44-9.19,1.49-12.22,3.98-1.09-5.09.5-9.29,4.87-12.77.71-.57.82-1.61.25-2.32-.18-.22-.41-.39-.67-.5-1.35-.49-2.79-.72-4.22-.66,1.02-1.94,2.77-4.3,5.17-4.97,1.8-.48,3.85.12,6.11,1.76.78.47,1.8.21,2.26-.57.4-.68.27-1.56-.32-2.08-3.1-2.27-6.09-3.04-8.88-2.29-4.28,1.13-6.82,5.51-7.96,8.03-.58,1.27,0,2.77,1.26,3.34.48.21,1,.28,1.52.18.29-.05.58-.09.88-.11-2.94,3.35-5.11,8.29-3.1,15.12.31,1.08,1.29,1.83,2.42,1.83h.08c.7-.02,1.37-.34,1.83-.87,1.61-1.82,5.65-3.21,11.1-3.81,2.79-.27,5.35-1.63,7.14-3.78,1.78-2.09,2.4-4.94,1.64-7.58-.49-1.68-1.33-3.24-2.47-4.58Z"/>
  <path class="st1" d="M59.92,30.47c-4.21,0-7.62,3.41-7.62,7.62s3.41,7.62,7.62,7.62,7.62-3.41,7.62-7.62c0-2.02-.8-3.96-2.23-5.39-1.43-1.43-3.37-2.24-5.39-2.24ZM62.97,41.15c-1.69,1.69-4.42,1.69-6.12,0s-1.69-4.42,0-6.12c1.69-1.69,4.42-1.69,6.12,0,.81.81,1.27,1.91,1.27,3.06s-.46,2.25-1.27,3.06h0Z"/>
  <path class="st1" d="M79.32,17.14c-8.99-.53-17.95,1.61-25.74,6.14-3.1,1.78-5.96,3.97-8.48,6.51l-2.33-.13c-2.72-.14-5.37.88-7.3,2.81l-4.84,4.84c-.84.84-.84,2.2,0,3.04.2.2.44.36.7.47l6.27,2.61c-.66,1.79-1.19,3.62-1.62,5.48l-.29,1.33c-.12.55.05,1.12.44,1.52l10.09,10.13c.4.4.97.56,1.52.44l1.33-.29c1.86-.41,3.7-.94,5.5-1.59l2.59,6.25c.46,1.09,1.73,1.6,2.82,1.13.26-.11.49-.27.69-.47l4.84-4.84c1.92-1.92,2.94-4.58,2.81-7.3l-.12-2.33c2.55-2.51,4.76-5.35,6.55-8.45,4.53-7.79,6.66-16.75,6.13-25.74-.05-.84-.72-1.51-1.56-1.56h0ZM71.96,42.66c-1.74,3.08-3.93,5.89-6.5,8.32l-.07.06c-.29.27-.46.63-.5,1.02,0,.1,0,.19,0,.29l.16,3.07c.09,1.78-.58,3.53-1.84,4.8l-3.62,3.62-2.54-6.13c-.34-.84-1.29-1.23-2.13-.9-2.12.84-4.29,1.5-6.51,1.99l-.45.1-8.83-8.83.1-.45c.49-2.22,1.15-4.39,1.99-6.51.33-.84-.07-1.78-.9-2.13l-6.13-2.54,3.62-3.62c1.27-1.27,3.01-1.94,4.8-1.84l3.1.16c.5.02.99-.19,1.33-.58,2.4-2.54,5.17-4.71,8.21-6.43,6.79-3.95,14.55-5.95,22.4-5.76.19,7.81-1.77,15.52-5.68,22.29Z"/>
</svg>